# xmcd CD database file
# Copyright (C) 2007 Ti Kan
# 
# Track frame offsets:
#     150
#     21222
#     39357
#     59692
#     77990
#     92604
#     108012
#     126232
#     142010
#     163345
#     180005
# 
# Disc length: 2600 seconds
# 
# Revision: 1
# Processed by: cddbd v1.5.2PL0 Copyright (c) Steve Scherf et al.
# Submitted via: DiscPlay 4.0.4
# 
DISCID=8c0a260b
DTITLE=Elisabeth Carlisle - Roll With The Flow
DYEAR=1900
DGENRE=
TTITLE0=The Hardest Thing I've Ever Had To Do
TTITLE1=Roll With The Flow
TTITLE2=Next To Me
TTITLE3=Silver Clouds
TTITLE4=Fine
TTITLE5=Carrington Rock
TTITLE6=My Future
TTITLE7=I Wasn't Lonely Till I Met You
TTITLE8=Embrace Me
TTITLE9=I Can't Tell You
TTITLE10=Coming Home
EXTD=Submitted by ecto@cox.net
EXTT0=
EXTT1=
EXTT2=
EXTT3=
EXTT4=
EXTT5=
EXTT6=
EXTT7=
EXTT8=
EXTT9=
EXTT10=
PLAYORDER=
